# Blender v2.79 (sub 0) OBJ File: 'exact45Pyramid.blend'
# www.blender.org
mtllib exactPyramidUW.mtl
o Cube
v 0.450000 -0.450000 -0.450000
v 0.450000 -0.450000 0.450000
v -0.450000 -0.450000 0.450000
v -0.450000 -0.450000 -0.450000
v -0.000000 0.450000 0.000000
vt 0.000000 0.000000
vt 1.000000 0.000000
vt 1.000000 1.000000
vt 0.000000 1.000000
vt 1.000000 0.000000
vt 1.000000 1.000000
vt 0.000000 0.000000
vt 0.000000 0.000000
vt 1.000000 1.000000
vt 0.000000 0.000000
vt 1.000000 0.000000
vn 0.0000 -1.0000 0.0000
vn 0.8944 0.4472 0.0000
vn -0.0000 0.4472 0.8944
vn -0.8944 0.4472 -0.0000
vn 0.0000 0.4472 -0.8944
usemtl Material
s off
f 1/1/1 2/2/1 3/3/1 4/4/1
f 1/1/2 5/5/2 2/6/2
f 2/7/3 5/5/3 3/3/3
f 3/8/4 5/5/4 4/9/4
f 5/10/5 1/11/5 4/9/5
